REM DIRINDEX 1\2\4,1\2\5,1\2\6,1\3\7,1\3\8
REM DIRNAME cjc128,folder01,folder02,folder03,folder04,folder05,folder06,folder07
TITLE ""
FILE "012_Lesson 10_Output_Stage.mp3" MP3
  TRACK 01 AUDIO
    TITLE "0:"
    INDEX 01 00:00:00
  TRACK 02 AUDIO
    TITLE "8:cjc128_2855"
    INDEX 01 00:00:09
  TRACK 03 AUDIO
    TITLE "0:"
    INDEX 01 00:02:57
  TRACK 04 AUDIO
    TITLE "8:cjc128_2856"
    INDEX 01 00:03:43
  TRACK 05 AUDIO
    TITLE "0:"
    INDEX 01 00:05:22
  TRACK 06 AUDIO
    TITLE "7:cjc128_2857"
    INDEX 01 00:06:00
  TRACK 07 AUDIO
    TITLE "0:"
    INDEX 01 00:08:15
  TRACK 08 AUDIO
    TITLE "8:cjc128_2858"
    INDEX 01 00:10:61
  TRACK 09 AUDIO
    TITLE "0:"
    INDEX 01 00:12:36
  TRACK 10 AUDIO
    TITLE "7:cjc128_2859"
    INDEX 01 00:13:14
  TRACK 11 AUDIO
    TITLE "0:"
    INDEX 01 00:15:13
  TRACK 12 AUDIO
    TITLE "8:cjc128_2860"
    INDEX 01 00:17:70
  TRACK 13 AUDIO
    TITLE "0:"
    INDEX 01 00:19:54
  TRACK 14 AUDIO
    TITLE "7:cjc128_2861"
    INDEX 01 00:20:36
  TRACK 15 AUDIO
    TITLE "0:"
    INDEX 01 00:22:72
  TRACK 16 AUDIO
    TITLE "8:cjc128_2862"
    INDEX 01 00:25:21
  TRACK 17 AUDIO
    TITLE "0:"
    INDEX 01 00:27:10
  TRACK 18 AUDIO
    TITLE "7:cjc128_2863"
    INDEX 01 00:27:67
  TRACK 19 AUDIO
    TITLE "0:"
    INDEX 01 00:30:03
  TRACK 20 AUDIO
    TITLE "8:cjc128_2864"
    INDEX 01 00:32:74
  TRACK 21 AUDIO
    TITLE "0:"
    INDEX 01 00:34:61
  TRACK 22 AUDIO
    TITLE "7:cjc128_2865"
    INDEX 01 00:35:37
  TRACK 23 AUDIO
    TITLE "0:"
    INDEX 01 00:38:35
  TRACK 24 AUDIO
    TITLE "8:cjc128_2866"
    INDEX 01 00:41:59
  TRACK 25 AUDIO
    TITLE "0:"
    INDEX 01 00:43:54
  TRACK 26 AUDIO
    TITLE "7:cjc128_2867"
    INDEX 01 00:44:28
  TRACK 27 AUDIO
    TITLE "0:"
    INDEX 01 00:47:03
  TRACK 28 AUDIO
    TITLE "8:cjc128_2868"
    INDEX 01 00:50:37
  TRACK 29 AUDIO
    TITLE "0:"
    INDEX 01 00:52:30
  TRACK 30 AUDIO
    TITLE "7:cjc128_2869"
    INDEX 01 00:53:09
  TRACK 31 AUDIO
    TITLE "0:"
    INDEX 01 00:55:67
  TRACK 32 AUDIO
    TITLE "8:cjc128_2870"
    INDEX 01 00:59:12
  TRACK 33 AUDIO
    TITLE "0:"
    INDEX 01 01:00:70
  TRACK 34 AUDIO
    TITLE "7:cjc128_2871"
    INDEX 01 01:01:50
  TRACK 35 AUDIO
    TITLE "0:"
    INDEX 01 01:04:31
  TRACK 36 AUDIO
    TITLE "8:cjc128_2872"
    INDEX 01 01:07:63
  TRACK 37 AUDIO
    TITLE "0:"
    INDEX 01 01:09:54
  TRACK 38 AUDIO
    TITLE "7:cjc128_2873"
    INDEX 01 01:10:33
  TRACK 39 AUDIO
    TITLE "0:"
    INDEX 01 01:13:18
  TRACK 40 AUDIO
    TITLE "8:cjc128_2874"
    INDEX 01 01:16:67
  TRACK 41 AUDIO
    TITLE "0:"
    INDEX 01 01:18:39
  TRACK 42 AUDIO
    TITLE "7:cjc128_2875"
    INDEX 01 01:19:21
  TRACK 43 AUDIO
    TITLE "0:"
    INDEX 01 01:21:39
  TRACK 44 AUDIO
    TITLE "8:cjc128_2876"
    INDEX 01 01:24:43
  TRACK 45 AUDIO
    TITLE "0:"
    INDEX 01 01:26:34
  TRACK 46 AUDIO
    TITLE "7:cjc128_2877"
    INDEX 01 01:27:12
  TRACK 47 AUDIO
    TITLE "0:"
    INDEX 01 01:29:72
  TRACK 48 AUDIO
    TITLE "8:cjc128_2878"
    INDEX 01 01:33:05
  TRACK 49 AUDIO
    TITLE "0:"
    INDEX 01 01:34:73
  TRACK 50 AUDIO
    TITLE "7:cjc128_2879"
    INDEX 01 01:35:55
  TRACK 51 AUDIO
    TITLE "0:"
    INDEX 01 01:38:69
  TRACK 52 AUDIO
    TITLE "8:cjc128_2880"
    INDEX 01 01:42:41
  TRACK 53 AUDIO
    TITLE "0:"
    INDEX 01 01:44:30
  TRACK 54 AUDIO
    TITLE "7:cjc128_2881"
    INDEX 01 01:45:16
  TRACK 55 AUDIO
    TITLE "0:"
    INDEX 01 01:48:09
  TRACK 56 AUDIO
    TITLE "8:cjc128_2882"
    INDEX 01 01:51:34
  TRACK 57 AUDIO
    TITLE "0:"
    INDEX 01 01:53:27
  TRACK 58 AUDIO
    TITLE "7:cjc128_2883"
    INDEX 01 01:54:11
  TRACK 59 AUDIO
    TITLE "0:"
    INDEX 01 01:59:34
  TRACK 60 AUDIO
    TITLE "8:cjc128_2884"
    INDEX 01 02:05:19
  TRACK 61 AUDIO
    TITLE "0:"
    INDEX 01 02:07:16
  TRACK 62 AUDIO
    TITLE "7:cjc128_2885"
    INDEX 01 02:07:65
  TRACK 63 AUDIO
    TITLE "0:"
    INDEX 01 02:11:12
  TRACK 64 AUDIO
    TITLE "8:cjc128_2886"
    INDEX 01 02:14:59
  TRACK 65 AUDIO
    TITLE "0:"
    INDEX 01 02:16:58
  TRACK 66 AUDIO
    TITLE "7:cjc128_2887"
    INDEX 01 02:17:42
  TRACK 67 AUDIO
    TITLE "0:"
    INDEX 01 02:20:30
  TRACK 68 AUDIO
    TITLE "8:cjc128_2888"
    INDEX 01 02:24:00
  TRACK 69 AUDIO
    TITLE "0:"
    INDEX 01 02:25:72
  TRACK 70 AUDIO
    TITLE "7:cjc128_2889"
    INDEX 01 02:26:52
  TRACK 71 AUDIO
    TITLE "0:"
    INDEX 01 02:29:51
  TRACK 72 AUDIO
    TITLE "8:cjc128_2890"
    INDEX 01 02:33:03
  TRACK 73 AUDIO
    TITLE "0:"
    INDEX 01 02:34:67
  TRACK 74 AUDIO
    TITLE "7:cjc128_2891"
    INDEX 01 02:35:43
  TRACK 75 AUDIO
    TITLE "0:"
    INDEX 01 02:38:40
  TRACK 76 AUDIO
    TITLE "8:cjc128_2892"
    INDEX 01 02:41:62
  TRACK 77 AUDIO
    TITLE "0:"
    INDEX 01 02:43:57
  TRACK 78 AUDIO
    TITLE "7:cjc128_2893"
    INDEX 01 02:44:33
  TRACK 79 AUDIO
    TITLE "0:"
    INDEX 01 02:47:64
  TRACK 80 AUDIO
    TITLE "8:cjc128_2894"
    INDEX 01 02:52:01
  TRACK 81 AUDIO
    TITLE "0:"
    INDEX 01 02:53:45
  TRACK 82 AUDIO
    TITLE "7:cjc128_2895"
    INDEX 01 02:54:31
  TRACK 83 AUDIO
    TITLE "0:"
    INDEX 01 02:55:60
  TRACK 84 AUDIO
    TITLE "8:cjc128_2896"
    INDEX 01 02:57:69
  TRACK 85 AUDIO
    TITLE "0:"
    INDEX 01 02:59:62
  TRACK 86 AUDIO
    TITLE "7:cjc128_2897"
    INDEX 01 03:00:39
  TRACK 87 AUDIO
    TITLE "0:"
    INDEX 01 03:02:42
  TRACK 88 AUDIO
    TITLE "8:cjc128_2898"
    INDEX 01 03:04:74
  TRACK 89 AUDIO
    TITLE "0:"
    INDEX 01 03:06:67
  TRACK 90 AUDIO
    TITLE "7:cjc128_2899"
    INDEX 01 03:07:36
  TRACK 91 AUDIO
    TITLE "0:"
    INDEX 01 03:09:52
